<svg width="162" height="30" viewBox="0 0 162 30" fill="none" xmlns="http://www.w3.org/2000/svg">
<path d="M0 0.553986H5.49015L11.0546 14.0807L17.193 0.553986H22.7001L9.28869 30H3.73776L8.12718 20.5041L0 0.553986Z" fill="#FFD617"/>
<path d="M26.1643 0.553982H31.5397V3.03161C32.3915 2.06502 33.4346 1.28825 34.6021 0.751105C35.7606 0.243534 37.0124 -0.0124044 38.2757 2.23052e-07C39.5524 -0.0165596 40.8083 0.325967 41.9021 0.989012C43.0165 1.69549 43.9161 2.69737 44.502 3.88467C45.2954 2.67356 46.3741 1.6788 47.6421 0.989012C48.8964 0.326297 50.2942 -0.013484 51.7107 2.23052e-07C53.1235 -0.0307766 54.5162 0.340299 55.7287 1.07058C56.8267 1.71964 57.6974 2.6958 58.2206 3.86428C58.7271 5.01303 58.9803 6.8823 58.9803 9.47208V22.1117H53.5779V11.1748C53.5779 8.73003 53.2752 7.07602 52.6697 6.21276C52.0641 5.3495 51.1637 4.91673 49.9685 4.91447C49.0816 4.90486 48.2151 5.18248 47.4969 5.70636C46.7512 6.25697 46.1857 7.01907 45.8728 7.8951C45.5171 8.82633 45.3404 10.3229 45.3427 12.3847V22.1117H39.9403V11.671C39.9403 9.74057 39.7985 8.34372 39.5149 7.48046C39.3012 6.71804 38.8562 6.04191 38.242 5.54662C37.6449 5.11535 36.9237 4.89327 36.1891 4.91447C35.3159 4.9098 34.4649 5.19135 33.7648 5.71655C32.9891 6.27762 32.4005 7.06204 32.0765 7.96647C31.7164 8.92716 31.5352 10.4452 31.5329 12.5207V22.1117H26.1643V0.553982Z" fill="#FFD617"/>
<path d="M74.5999 6.36835e-06C76.6003 -0.00645597 78.5667 0.520033 80.2994 1.52601C82.023 2.50269 83.4562 3.92486 84.4511 5.64561C85.4459 7.36635 85.9663 9.32326 85.9584 11.3142C85.9651 13.3167 85.4456 15.2853 84.4525 17.0205C83.4903 18.7538 82.0751 20.189 80.3602 21.1703C78.6129 22.1735 76.6316 22.6897 74.6202 22.6657C73.1551 22.6893 71.7008 22.4091 70.3479 21.8426C68.995 21.276 67.7725 20.4351 66.7564 19.3724C65.7003 18.3292 64.8667 17.0801 64.3064 15.7016C63.7462 14.3231 63.4711 12.8441 63.4981 11.3549C63.4661 9.7649 63.7802 8.18707 64.4183 6.73217C65.0564 5.27728 66.0031 3.98058 67.1919 2.93305C69.1978 1.03785 71.8488 -0.0117633 74.5999 6.36835e-06ZM74.6877 5.098C73.9091 5.0781 73.1352 5.22405 72.4165 5.52627C71.6979 5.8285 71.0509 6.28018 70.5178 6.85171C69.9599 7.45262 69.5256 8.15865 69.24 8.92917C68.9543 9.69969 68.8228 10.5195 68.8532 11.3413C68.8532 13.2174 69.4013 14.7355 70.4975 15.8956C71.03 16.4674 71.6771 16.9189 72.396 17.22C73.1149 17.5212 73.8891 17.6652 74.6675 17.6425C75.4515 17.6626 76.2309 17.5159 76.9547 17.2119C77.6786 16.908 78.3305 16.4536 78.8678 15.8786C79.9933 14.7026 80.556 13.1902 80.556 11.3413C80.556 9.49247 80.0068 7.98913 78.9083 6.83132C78.3656 6.25972 77.7091 5.80987 76.9818 5.51118C76.2545 5.21249 75.4728 5.0717 74.6877 5.098Z" fill="#FFD617"/>
<path d="M90.79 0.553997H96.1654V2.76313C97.1527 1.87666 98.27 1.14873 99.4777 0.604977C100.442 0.206438 101.474 0.000951072 102.517 1.45817e-05C103.521 -0.0180007 104.519 0.171446 105.448 0.556661C106.377 0.941876 107.218 1.51469 107.919 2.23973C109.164 3.50857 109.786 5.3835 109.786 7.86452V22.1117H104.472V12.6702C104.472 10.1008 104.359 8.39245 104.134 7.54505C103.957 6.78582 103.536 6.10691 102.935 5.61461C102.327 5.15894 101.583 4.92521 100.825 4.95187C99.7854 4.93431 98.7808 5.32997 98.0292 6.05303C97.1972 6.87835 96.6323 7.93741 96.4085 9.09144C96.2509 9.77117 96.1721 11.2281 96.1721 13.4621V22.1117H90.79V0.553997Z" fill="#FFD617"/>
<path d="M136.882 12.9149H119.619C119.809 14.342 120.522 15.6462 121.617 16.5719C122.7 17.4782 124.081 17.9313 125.76 17.9313C126.721 17.945 127.674 17.7643 128.564 17.4C129.454 17.0357 130.262 16.4952 130.94 15.8106L135.464 17.9517C134.441 19.4734 133.045 20.7047 131.413 21.5271C129.655 22.34 127.735 22.7365 125.801 22.6861C122.44 22.6861 119.704 21.62 117.593 19.4879C115.481 17.3558 114.424 14.6777 114.422 11.4535C114.422 8.16359 115.476 5.4322 117.582 3.25932C119.689 1.08644 122.331 0 125.507 0C128.884 0 131.625 1.08644 133.732 3.25932C135.839 5.4322 136.896 8.3018 136.903 11.8681L136.882 12.9149ZM131.51 8.6394C131.163 7.44923 130.422 6.41431 129.41 5.70636C128.348 4.94742 127.073 4.55187 125.77 4.578C124.353 4.55027 122.966 4.99606 121.827 5.8457C121.118 6.37136 120.46 7.30259 119.855 8.6394H131.51Z" fill="#FFD617"/>
<path d="M139.3 0.553986H144.793L150.355 14.0807L156.493 0.553986H162L148.589 30H143.038L147.427 20.5041L139.3 0.553986Z" fill="#FFD617"/>
</svg>
